<?xml version="1.0" encoding="UTF-8" standalone="no"?>
<!-- Created with Inkscape (http://www.inkscape.org/) -->

<svg
   width="1500"
   height="1500"
   viewBox="0 0 396.875 396.875"
   version="1.1"
   id="svg1"
   inkscape:version="1.4 (e7c3feb1, 2024-10-09)"
   sodipodi:docname="opengraph.svg"
   inkscape:export-filename="public/opengraph.png"
   inkscape:export-xdpi="96"
   inkscape:export-ydpi="96"
   xmlns:inkscape="http://www.inkscape.org/namespaces/inkscape"
   xmlns:sodipodi="http://sodipodi.sourceforge.net/DTD/sodipodi-0.dtd"
   xmlns="http://www.w3.org/2000/svg"
   xmlns:svg="http://www.w3.org/2000/svg">
  <sodipodi:namedview
     id="namedview1"
     pagecolor="#ffffff"
     bordercolor="#000000"
     borderopacity="0.25"
     inkscape:showpageshadow="2"
     inkscape:pageopacity="0.0"
     inkscape:pagecheckerboard="0"
     inkscape:deskcolor="#d1d1d1"
     inkscape:document-units="px"
     inkscape:zoom="0.34269751"
     inkscape:cx="717.83422"
     inkscape:cy="1097.1775"
     inkscape:window-width="1680"
     inkscape:window-height="997"
     inkscape:window-x="0"
     inkscape:window-y="25"
     inkscape:window-maximized="1"
     inkscape:current-layer="layer1"
     showgrid="false" />
  <defs
     id="defs1" />
  <g
     inkscape:label="Layer 1"
     inkscape:groupmode="layer"
     id="layer1">
    <rect
       style="fill:#202020;fill-opacity:1;stroke-width:0.456449;stroke-linecap:square"
       id="rect1"
       width="396.875"
       height="396.875"
       x="0"
       y="0" />
    <g
       id="text1"
       style="font-size:36.6889px;line-height:0.8;font-family:'Kenney Future';-inkscape-font-specification:'Kenney Future';fill:#07fa39;stroke-width:0.264583;stroke-linecap:square"
       aria-label="sébastien&#10;dunne&#10;fulmer"
       transform="matrix(1.9344556,0,0,1.9344556,-29.668963,37.212718)">
      <path
         style="font-weight:bold;font-family:'Work Sans';-inkscape-font-specification:'Work Sans Bold'"
         d="m 41.142359,60.113765 q -2.751668,0 -5.136446,-0.880534 -2.34809,-0.917222 -3.889024,-2.604912 l 2.935112,-3.448756 q 0.917223,1.174044 2.421468,1.9812 1.540934,0.770467 3.412068,0.770467 1.137355,0 1.871133,-0.3302 0.733778,-0.3302 0.733778,-1.027289 0,-0.513645 -0.366889,-0.807156 -0.366889,-0.3302 -1.467556,-0.550333 L 39.08778,52.702607 q -3.448756,-0.697089 -4.916312,-2.054578 -1.430867,-1.394179 -1.430867,-3.632202 0,-1.504244 0.917222,-2.861734 0.917223,-1.394178 2.825046,-2.238023 1.907822,-0.880533 4.879623,-0.880533 2.788357,0 4.916313,0.807156 2.127956,0.807155 3.375379,2.348089 l -2.971801,3.375379 q -0.880534,-1.100667 -2.274712,-1.724378 -1.394178,-0.623712 -2.788356,-0.623712 -0.880534,0 -1.504245,0.183445 -0.587023,0.146755 -0.880534,0.440267 -0.293511,0.293511 -0.293511,0.733778 0,0.476955 0.440267,0.843844 0.476955,0.3302 1.724378,0.587023 l 3.33869,0.6604 q 2.825045,0.513645 4.072468,1.871134 1.247422,1.357489 1.247422,3.265312 0,1.797756 -0.953911,3.228623 -0.953911,1.430867 -2.861734,2.274712 -1.907823,0.807156 -4.806246,0.807156 z m 20.692565,0 q -3.045178,0 -5.283201,-1.137356 -2.201334,-1.137356 -3.412068,-3.265312 -1.210734,-2.127956 -1.210734,-5.136446 0,-3.00849 1.210734,-5.136446 1.210734,-2.127956 3.375379,-3.265312 2.201334,-1.137356 5.026379,-1.137356 2.898423,0 4.916313,1.137356 2.054578,1.100667 3.118556,3.081867 1.063978,1.944512 1.063978,4.476046 0,0.6604 -0.03669,1.3208 -0.03669,0.660401 -0.110066,1.100667 H 55.9647 v -3.338689 h 11.777137 l -2.971801,1.137355 q 0,-2.201334 -0.807156,-3.375378 -0.770466,-1.174045 -2.421467,-1.174045 -1.174045,0 -2.017889,0.550333 -0.807156,0.550334 -1.247423,1.724379 -0.403578,1.174044 -0.403578,3.008489 0,1.797757 0.476956,2.935112 0.476955,1.100667 1.357489,1.614312 0.880534,0.476956 2.127956,0.476956 1.394178,0 2.201334,-0.550334 0.843845,-0.550333 1.247423,-1.540934 l 4.98969,1.651001 q -0.513644,1.577623 -1.797756,2.67829 -1.247422,1.063978 -3.00849,1.614311 -1.724378,0.550334 -3.632201,0.550334 z M 61.064457,32.670468 h 5.796847 l -3.705579,6.347179 h -4.549424 z m 24.838404,27.443297 q -1.797756,0 -3.191934,-0.807156 -1.35749,-0.807156 -2.238023,-2.201334 -0.880534,-1.430867 -1.137356,-3.228623 l 0.587022,-0.770467 -0.3302,6.640691 H 74.125724 V 33.624379 h 6.237113 v 13.538204 l -0.587022,-0.880534 q 0.513644,-2.274711 2.091267,-3.742267 1.577623,-1.504245 4.255912,-1.504245 2.127956,0 3.778957,1.137356 1.687689,1.137356 2.604912,3.302001 0.953911,2.127956 0.953911,5.173135 0,2.9718 -0.953911,5.099757 -0.953912,2.127956 -2.641601,3.265312 -1.687689,1.100667 -3.962401,1.100667 z m -2.164645,-4.586113 q 1.614311,0 2.531534,-1.174045 0.917222,-1.210733 0.917222,-3.778956 0,-2.568223 -0.917222,-3.742268 -0.917223,-1.210734 -2.531534,-1.210734 -1.063978,0 -1.834445,0.623712 -0.733778,0.587022 -1.137356,1.687689 -0.403578,1.100667 -0.403578,2.67829 0,1.577622 0.403578,2.678289 0.403578,1.100667 1.174045,1.68769 0.770467,0.550333 1.797756,0.550333 z m 23.451614,-7.411158 q 0,-1.284111 -0.73378,-2.017889 -0.69709,-0.770467 -1.90782,-0.770467 -1.21073,0 -2.09127,0.623711 -0.84384,0.587023 -1.17404,2.127957 l -5.283204,-1.247423 q 0.513645,-2.641601 2.714979,-4.219224 2.201335,-1.577622 6.200425,-1.577622 2.67829,0 4.54942,0.807156 1.90783,0.770466 2.89843,2.348089 1.02728,1.540934 1.02728,3.815646 v 6.714068 q 0,1.430868 1.28412,1.430868 0.6604,0 1.06397,-0.146756 l -0.36688,3.558823 q -1.10067,0.513645 -2.67829,0.513645 -1.43087,0 -2.53154,-0.440267 -1.10067,-0.476956 -1.72438,-1.394178 -0.62371,-0.953912 -0.62371,-2.384779 v -0.220133 l 0.69709,-0.256822 q 0,1.577622 -0.95391,2.6416 -0.91722,1.063979 -2.42147,1.577623 -1.46755,0.513645 -3.08187,0.513645 -1.87113,0 -3.265307,-0.587023 -1.394179,-0.587022 -2.164645,-1.687689 -0.733778,-1.137356 -0.733778,-2.788356 0,-1.981201 1.174044,-3.265313 1.210734,-1.3208 3.778956,-1.834445 l 6.9342,-1.430867 -0.0367,3.302001 -3.52213,0.733778 q -1.10067,0.220134 -1.651,0.660401 -0.51365,0.403577 -0.51365,1.247422 0,0.807156 0.58703,1.210734 0.58702,0.403578 1.39418,0.403578 0.62371,0 1.17404,-0.183445 0.58702,-0.183444 1.02729,-0.550333 0.44027,-0.403578 0.69709,-0.990601 0.25682,-0.587022 0.25682,-1.394178 z m 18.71136,11.997271 q -2.75167,0 -5.13645,-0.880534 -2.34809,-0.917222 -3.88902,-2.604912 l 2.93511,-3.448756 q 0.91722,1.174044 2.42147,1.9812 1.54093,0.770467 3.41206,0.770467 1.13736,0 1.87114,-0.3302 0.73378,-0.3302 0.73378,-1.027289 0,-0.513645 -0.36689,-0.807156 -0.36689,-0.3302 -1.46756,-0.550333 l -2.56822,-0.513645 q -3.44876,-0.697089 -4.91631,-2.054578 -1.43087,-1.394179 -1.43087,-3.632202 0,-1.504244 0.91722,-2.861734 0.91722,-1.394178 2.82505,-2.238023 1.90782,-0.880533 4.87962,-0.880533 2.78836,0 4.91631,0.807156 2.12796,0.807155 3.37538,2.348089 l -2.9718,3.375379 q -0.88053,-1.100667 -2.27471,-1.724378 -1.39418,-0.623712 -2.78836,-0.623712 -0.88053,0 -1.50424,0.183445 -0.58703,0.146755 -0.88054,0.440267 -0.29351,0.293511 -0.29351,0.733778 0,0.476955 0.44027,0.843844 0.47695,0.3302 1.72438,0.587023 l 3.33869,0.6604 q 2.82504,0.513645 4.07246,1.871134 1.24743,1.357489 1.24743,3.265312 0,1.797756 -0.95391,3.228623 -0.95392,1.430867 -2.86174,2.274712 -1.90782,0.807156 -4.80624,0.807156 z m 19.51853,-24.544874 v 17.647361 q 0,1.3208 0.62371,1.907822 0.6604,0.550334 1.79776,0.550334 0.88053,0 1.50424,-0.183445 0.6604,-0.220133 1.17405,-0.623711 l 0.6604,3.852335 q -0.91723,0.6604 -2.3114,1.027289 -1.39418,0.366889 -2.86174,0.366889 -2.09127,0 -3.6322,-0.587023 -1.50424,-0.587022 -2.34809,-1.871134 -0.80716,-1.284111 -0.84384,-3.412067 V 37.293269 Z m 5.46664,5.833535 v 4.439357 h -14.859 v -4.439357 z m 6.01699,-2.127956 q -1.90782,0 -2.78835,-0.69709 -0.84385,-0.733778 -0.84385,-2.274711 0,-1.577623 0.84385,-2.274712 0.88053,-0.733778 2.78835,-0.733778 1.87114,0 2.75167,0.733778 0.88053,0.697089 0.88053,2.274712 0,1.540933 -0.88053,2.274711 -0.88053,0.69709 -2.75167,0.69709 z m 3.11856,2.127956 v 18.34445 h -6.23711 v -18.34445 z m 13.39146,18.711339 q -3.04518,0 -5.2832,-1.137356 -2.20133,-1.137356 -3.41207,-3.265312 -1.21073,-2.127956 -1.21073,-5.136446 0,-3.00849 1.21073,-5.136446 1.21074,-2.127956 3.37538,-3.265312 2.20134,-1.137356 5.02638,-1.137356 2.89842,0 4.91631,1.137356 2.05458,1.100667 3.11856,3.081867 1.06398,1.944512 1.06398,4.476046 0,0.6604 -0.0367,1.3208 -0.0367,0.660401 -0.11007,1.100667 h -14.5288 v -3.338689 h 11.77713 l -2.9718,1.137355 q 0,-2.201334 -0.80715,-3.375378 -0.77047,-1.174045 -2.42147,-1.174045 -1.17404,0 -2.01789,0.550333 -0.80715,0.550334 -1.24742,1.724379 -0.40358,1.174044 -0.40358,3.008489 0,1.797757 0.47696,2.935112 0.47695,1.100667 1.35749,1.614312 0.88053,0.476956 2.12795,0.476956 1.39418,0 2.20134,-0.550334 0.84384,-0.550333 1.24742,-1.540934 l 4.98969,1.651001 q -0.51365,1.577623 -1.79776,2.67829 -1.24742,1.063978 -3.00849,1.614311 -1.72438,0.550334 -3.6322,0.550334 z m 12.2908,-0.366889 v -18.34445 h 5.57671 l 0.3302,6.310491 -0.69709,-0.69709 q 0.36689,-1.9812 1.28411,-3.302001 0.95392,-1.3208 2.34809,-1.9812 1.43087,-0.697089 3.19194,-0.697089 1.90782,0 3.302,0.733778 1.43087,0.733778 2.23802,2.164645 0.80716,1.430867 0.80716,3.595512 V 59.746876 H 197.8482 V 49.180473 q 0,-1.907823 -0.73378,-2.641601 -0.73378,-0.733778 -1.87114,-0.733778 -0.88053,0 -1.651,0.440267 -0.77046,0.403577 -1.21073,1.3208 -0.44027,0.917222 -0.44027,2.458156 v 9.722559 z"
         id="path1" />
      <path
         style="font-weight:bold;font-family:'Work Sans';-inkscape-font-specification:'Work Sans Bold'"
         d="m 40.188447,97.065399 q -2.274711,0 -3.99909,-1.100667 -1.687689,-1.137356 -2.6416,-3.265312 -0.917223,-2.127956 -0.917223,-5.099757 0,-3.081868 0.953911,-5.209824 0.990601,-2.127956 2.714979,-3.265312 1.761067,-1.137356 4.035779,-1.137356 2.494845,0 3.99909,1.540934 1.540934,1.504245 1.981201,3.852334 l -0.587023,0.770467 V 70.576013 h 6.237113 V 96.69851 h -5.576712 l -0.403578,-6.237113 0.733778,0.550334 q -0.220134,1.834445 -1.137356,3.191934 -0.880534,1.357489 -2.274712,2.127956 -1.357489,0.733778 -3.118557,0.733778 z m 2.164646,-4.586112 q 1.063978,0 1.797756,-0.550334 0.770467,-0.587022 1.174044,-1.724378 0.403578,-1.137356 0.403578,-2.788357 0,-1.540933 -0.403578,-2.604912 -0.366889,-1.100667 -1.137355,-1.651 -0.733778,-0.587022 -1.797757,-0.587022 -1.614311,0 -2.568223,1.210733 -0.917222,1.174045 -0.917222,3.742268 0,2.568223 0.917222,3.778957 0.917223,1.174045 2.531535,1.174045 z m 20.28899,4.586112 q -1.871134,0 -3.302001,-0.623711 -1.394178,-0.6604 -2.201334,-2.091268 -0.807156,-1.430867 -0.807156,-3.742267 V 78.35406 h 6.237113 v 10.786537 q 0,1.761067 0.697089,2.458156 0.69709,0.697089 1.981201,0.697089 0.6604,0 1.247423,-0.220133 0.587022,-0.256823 1.027289,-0.733778 0.440267,-0.513645 0.6604,-1.284112 0.256822,-0.807156 0.256822,-1.871134 V 78.35406 h 6.237113 V 96.69851 H 69.09933 l -0.183445,-3.448757 q -0.880534,1.944512 -2.458156,2.898424 -1.577623,0.917222 -3.815646,0.917222 z M 79.152068,96.69851 V 78.35406 h 5.576713 l 0.3302,6.310491 -0.697089,-0.697089 q 0.366889,-1.981201 1.284112,-3.302001 0.953911,-1.320801 2.348089,-1.981201 1.430867,-0.697089 3.191934,-0.697089 1.907823,0 3.302001,0.733778 1.430868,0.733778 2.238023,2.164645 0.807156,1.430867 0.807156,3.595512 V 96.69851 H 91.296094 V 86.132107 q 0,-1.907823 -0.733778,-2.641601 -0.733778,-0.733778 -1.871134,-0.733778 -0.880533,0 -1.651,0.440267 -0.770467,0.403578 -1.210734,1.3208 -0.440267,0.917223 -0.440267,2.458157 v 9.722558 z m 22.747142,0 V 78.35406 h 5.57672 l 0.3302,6.310491 -0.69709,-0.697089 q 0.36689,-1.981201 1.28411,-3.302001 0.95391,-1.320801 2.34809,-1.981201 1.43087,-0.697089 3.19193,-0.697089 1.90783,0 3.30201,0.733778 1.43086,0.733778 2.23802,2.164645 0.80715,1.430867 0.80715,3.595512 V 96.69851 h -6.23711 V 86.132107 q 0,-1.907823 -0.73378,-2.641601 -0.73378,-0.733778 -1.87113,-0.733778 -0.88053,0 -1.651,0.440267 -0.77047,0.403578 -1.21074,1.3208 -0.44026,0.917223 -0.44026,2.458157 v 9.722558 z m 31.69925,0.366889 q -3.04518,0 -5.2832,-1.137356 -2.20133,-1.137356 -3.41207,-3.265312 -1.21073,-2.127956 -1.21073,-5.136446 0,-3.00849 1.21073,-5.136446 1.21074,-2.127956 3.37538,-3.265312 2.20133,-1.137356 5.02638,-1.137356 2.89842,0 4.91631,1.137356 2.05458,1.100667 3.11856,3.081868 1.06398,1.944511 1.06398,4.476045 0,0.660401 -0.0367,1.320801 -0.0367,0.6604 -0.11007,1.100667 h -14.5288 v -3.33869 h 11.77713 l -2.9718,1.137356 q 0,-2.201334 -0.80715,-3.375379 -0.77047,-1.174045 -2.42147,-1.174045 -1.17405,0 -2.01789,0.550334 -0.80716,0.550333 -1.24742,1.724378 -0.40358,1.174045 -0.40358,3.00849 0,1.797756 0.47696,2.935112 0.47695,1.100667 1.35748,1.614311 0.88054,0.476956 2.12796,0.476956 1.39418,0 2.20133,-0.550333 0.84385,-0.550334 1.24743,-1.540934 l 4.98969,1.651 q -0.51365,1.577623 -1.79776,2.67829 -1.24742,1.063978 -3.00849,1.614312 -1.72438,0.550333 -3.6322,0.550333 z"
         id="path2" />
      <path
         style="font-weight:bold;font-family:'Work Sans';-inkscape-font-specification:'Work Sans Bold'"
         d="m 41.986204,107.014 q 1.504244,0 2.6416,0.3302 1.137356,0.29351 1.68769,0.69709 l -0.623712,3.88903 q -0.403577,-0.25683 -0.917222,-0.40358 -0.513645,-0.14676 -1.284112,-0.14676 -1.284111,0 -2.127956,0.58702 -0.807156,0.58703 -0.807156,2.05458 v 2.38478 l 0.366889,1.02729 v 16.21649 H 34.685112 V 113.618 q 0,-1.76106 0.550334,-3.00848 0.587022,-1.24743 1.614312,-2.05458 1.027289,-0.80716 2.348089,-1.17405 1.320801,-0.36689 2.788357,-0.36689 z m 4.145845,8.29169 v 4.43936 H 31.75 v -4.43936 z m 8.731992,18.71134 q -1.871134,0 -3.302001,-0.62371 -1.394178,-0.6604 -2.201334,-2.09127 -0.807155,-1.43086 -0.807155,-3.74226 v -12.2541 h 6.237113 v 10.78654 q 0,1.76107 0.697089,2.45816 0.697089,0.69709 1.9812,0.69709 0.6604,0 1.247423,-0.22014 0.587022,-0.25682 1.027289,-0.73378 0.440267,-0.51364 0.6604,-1.28411 0.256823,-0.80715 0.256823,-1.87113 v -9.83263 h 6.237113 v 18.34445 h -5.576713 l -0.183445,-3.44875 q -0.880533,1.94451 -2.458156,2.89842 -1.577623,0.91722 -3.815646,0.91722 z m 22.673721,-26.48938 v 19.88538 q 0,1.21073 0.403577,1.72438 0.403578,0.51364 1.35749,0.51364 0.550333,0 0.917222,-0.0734 0.366889,-0.0734 0.880534,-0.22014 l -0.403578,3.74227 q -0.6604,0.40358 -1.724378,0.6604 -1.063978,0.25682 -2.091268,0.25682 -2.935112,0 -4.255912,-1.35749 -1.3208,-1.35749 -1.3208,-4.43935 v -20.69254 z m 5.833522,26.12249 v -18.34445 h 5.576712 l 0.183445,3.55883 q 0.880534,-1.94451 2.458156,-2.93511 1.614312,-0.9906 3.705579,-0.9906 2.054579,0 3.558823,0.91722 1.504241,0.91722 2.238021,2.71498 0.58702,-1.21074 1.50425,-2.01789 0.95391,-0.80716 2.16464,-1.21074 1.21074,-0.40357 2.49485,-0.40357 1.83444,0 3.22862,0.73377 1.39418,0.69709 2.20133,2.16465 0.84385,1.43087 0.84385,3.59551 v 12.2174 h -6.23711 v -10.78653 q 0,-1.76107 -0.69709,-2.45816 -0.6604,-0.69709 -1.79776,-0.69709 -0.91722,0 -1.68769,0.47696 -0.73378,0.44026 -1.13735,1.35749 -0.40358,0.91722 -0.40358,2.3114 v 9.79593 h -6.237115 v -10.78653 q 0,-1.76107 -0.697089,-2.45816 -0.697089,-0.69709 -1.797756,-0.69709 -0.843845,0 -1.614312,0.44027 -0.733778,0.44027 -1.174045,1.39418 -0.440266,0.91722 -0.440266,2.42146 v 9.68587 z m 43.476346,0.36689 q -3.04518,0 -5.2832,-1.13735 -2.20134,-1.13736 -3.41207,-3.26531 -1.21073,-2.12796 -1.21073,-5.13645 0,-3.00849 1.21073,-5.13645 1.21073,-2.12795 3.37538,-3.26531 2.20133,-1.13735 5.02638,-1.13735 2.89842,0 4.91631,1.13735 2.05458,1.10067 3.11856,3.08187 1.06398,1.94451 1.06398,4.47604 0,0.6604 -0.0367,1.3208 -0.0367,0.66041 -0.11007,1.10067 h -14.5288 v -3.33869 h 11.77713 l -2.9718,1.13736 q 0,-2.20134 -0.80715,-3.37538 -0.77047,-1.17405 -2.42147,-1.17405 -1.17405,0 -2.01789,0.55034 -0.80716,0.55033 -1.24742,1.72438 -0.40358,1.17404 -0.40358,3.00849 0,1.79775 0.47695,2.93511 0.47696,1.10066 1.35749,1.61431 0.88054,0.47696 2.12796,0.47696 1.39418,0 2.20133,-0.55034 0.84385,-0.55033 1.24743,-1.54093 l 4.98969,1.651 q -0.51365,1.57762 -1.79776,2.67829 -1.24742,1.06398 -3.00849,1.61431 -1.72438,0.55033 -3.6322,0.55033 z m 12.2908,-0.36689 v -18.34445 h 5.50333 l 0.25682,3.96241 q 0.69709,-2.05458 2.05458,-3.19194 1.39418,-1.13735 3.52214,-1.13735 0.69709,0 1.17404,0.11006 0.51365,0.11007 0.80716,0.29351 l -0.62371,5.13645 q -0.36689,-0.14676 -0.95392,-0.22013 -0.55033,-0.11007 -1.35748,-0.11007 -1.10067,0 -2.05458,0.47695 -0.95391,0.47696 -1.54094,1.43087 -0.55033,0.91722 -0.55033,2.34809 v 9.2456 z"
         id="path3" />
    </g>
  </g>
</svg>
